<?xml version="1.0" encoding="UTF-8"?>
<!-- Created with Inkscape (http://www.inkscape.org/) -->
<svg width="45mm" height="40mm" fill="#fff" version="1.1" viewBox="0 0 70 56" xmlns="http://www.w3.org/2000/svg">
    <g transform="matrix(1.0863 0 0 1.0863 -71.836 -35.394)">
        <path d="m100.01 46.358c-0.10351-0.1035-1.4657-0.21438-1.9659-0.16002-0.2952 0.03209-0.71991 0.07801-0.9438 0.10204-0.47556 0.05104-0.78243-0.06581-1.3373-0.50921-1.6035-1.2814-4.731-1.7453-7.4344-1.1027-0.37599 0.08937-0.74937 0.17762-0.82972 0.19611-0.78342 0.18026-0.26405-3.2362 0.82455-5.424 1.7691-3.5554 4.6216-5.6678 8.4459-6.2544 6.8908-1.0571 12.928 4.0649 13.165 11.168 0.0445 1.3383 0.32004 1.2166-2.1281 0.93989-3.4873-0.3942-5.6796-0.15292-7.0674 0.77785-0.4129 0.27692-0.63609 0.35844-0.72845 0.26608z"/>
        <path d="m103.58 51.819c-1.3436-0.67138-1.2582-2.9889 0.12528-3.4034 0.62099-0.18606 1.3161-0.03942 1.7538 0.36996 1.5696 1.4682 0.014 3.9794-1.8791 3.0334z"/>
        <path d="m91.727 52.023c-1.2014-0.3482-1.6602-1.862-0.87617-2.8912 0.7439-0.97656 2.4359-0.90532 2.9379 0.1237 0.73439 1.5054-0.53547 3.2099-2.0618 2.7675z"/>
        <path d="m91.199 54.978c-3.0755-0.24929-4.8425-2.1388-5.066-5.4171-0.07576-1.1115-0.09485-1.1624-0.49327-1.3145-0.96955-0.37027-0.62859-1.9863 0.41908-1.9863 0.32252 0 0.64312-0.06867 1.2646-0.27084 3.195-1.0395 7.4696-0.49802 8.5426 1.0821 0.38364 0.56493 0.45199 0.5876 1.0042 0.33306 0.73933-0.34078 2.4991-0.31347 3.1749 0.04928 0.32192 0.17279 0.38512 0.14833 0.68096-0.26344 0.90945-1.2659 5.2129-1.6829 8.7852-0.8512 0.48664 0.11329 0.63995 0.1254 0.80985 0.06396 0.68435-0.24746 1.1058 0.13276 1.1058 0.99767 0 0.56612-0.12141 0.85194-0.38699 0.91099-0.36953 0.08217-0.40499 0.10321-0.47543 0.2821-0.0395 0.10025-0.10487 0.49927-0.14535 0.88672-0.40404 3.868-2.0428 5.4679-5.6007 5.4679-3.08 0-4.7344-1.629-4.9858-4.9093-0.0891-1.1625-0.26817-1.3301-1.4214-1.3301-1.3086 0-1.4518 0.16424-1.6726 1.9182-0.3736 2.9677-2.4532 4.6011-5.5397 4.3509zm1.6241-1.3126c2.4007-0.49798 3.7513-3.8178 2.3-5.6538-1.1671-1.4765-6.5116-1.7403-7.2636-0.35855-1.7183 3.1571 1.2712 6.7782 4.9636 6.0123zm12.918 0.07848c2.3182-0.41331 3.7363-2.5934 3.3136-5.0943-0.24287-1.437-0.44308-1.5243-3.4991-1.5253-3.6081-0.0012-4.9338 0.9005-4.5988 3.1277 0.36041 2.3955 1.5758 3.4653 4.0626 3.5757 0.1107 0.0049 0.43548-0.03282 0.72173-0.08385z"/>
        <path d="m87.587 65.544c-3.6993 2.2881-5.9823 1.6058-7.2689 5.1411-0.82618 2.2702 2.4615 4.3936 3.7119 2.4659 0.68906-1.0622 1.5238-0.53038 1.1611 0.73985-1.0193 3.5705-6.7727 2.5391-7.7383-1.3873-0.90958-3.6984 1.0733-6.4229 6.1391-8.2854 0.51606-0.18973 1.1371-0.42321 1.3802-0.51883"/>
        <path d="m84.188 64.89c-0.07874-0.11782-0.23477-0.40366-0.34672-0.6352-0.20355-0.42098-0.20355-0.42098-0.88413-0.37834-3.9663 0.2485-7.4976-2.6948-7.8926-6.5785-0.1169-1.1493 0.02351-2.0909 0.56976-3.8211 0.76673-2.4284 0.79832-3.4506 0.1451-4.695-1.0804-2.0583-5.2018-1.9069-6.21 0.22812-0.65492 1.3869 0.53289 2.7507 1.8141 2.0829 0.38979-0.20317 0.52622-0.0846 0.3974 0.34537-0.41257 1.377-3.1867 1.1833-3.9252-0.2742-1.9506-3.8494 3.8915-7.9871 8.3024-5.8802 2.9821 1.4244 4.1411 4.7402 3.0497 8.7245-0.50995 1.8615-0.49148 3.1082 0.06313 4.2603 0.94962 1.9726 4.0609 2.4666 4.9612 0.78774 0.64237-1.1979 2.0624-2.3217 3.3073-2.6174 0.33925-0.08059 0.33925-0.08059 0.34028-0.81948 0.0013-0.91708 0.03871-0.99458 0.36147-0.7484 3.2552 2.4829 8.4377 0.48043 9.4385-3.6469 0.25267-1.0419 0.25799-1.0566 0.39689-1.0929 0.52469-0.13721 0.76382 0.0429 0.86819 0.65393 0.67411 3.9465 4.2168 5.9887 8.2052 4.7299 0.34162-0.10782 0.65455-0.19657 0.6954-0.19722 0.0466-7.43e-4 0.0915 0.25511 0.12061 0.6865 0.25986 3.856 2.6828 6.5765 5.7029 6.4033 2.4962-0.14315 2.6888-1.2095 0.87502-4.8434-1.8114-3.6291-1.7584-5.7495 0.19244-7.7004 2.317-2.317 6.505-1.5739 7.0265 1.2468 0.20298 1.098-0.87125 1.7861-1.3424 0.85977-0.87437-1.7192-3.2586-1.4378-3.9085 0.46131-0.40424 1.1813-0.1476 2.1294 1.1695 4.3204 2.0974 3.489 2.2 5.567 0.3716 7.5248-2.6778 2.8674-7.3943 2.677-10.715-0.43252-0.20129-0.18849-0.37694-0.3427-0.39034-0.3427-0.0925 0 0.70262 1.3245 1.0617 1.7687 1.6684 2.0636 3.9186 2.696 7.5442 2.12 4.5562-0.7238 7.795 1.1419 8.3554 4.8132 0.69101 4.5266-5.6353 8.0416-7.8216 4.3458-0.67316-1.1379-0.0233-2.0332 0.83449-1.1496 0.73126 0.75333 2.4006 0.65913 3.2427-0.18299 1.6504-1.6504 0.64773-4.2501-1.8441-4.7817-0.84874-0.18104-1.999-0.08671-4.2428 0.34793-4.5012 0.87191-8.2743-0.8277-10.654-4.799-0.26128-0.43609-0.26128-0.43609-0.22344 0.369 0.10118 2.1522 0.84897 3.625 2.9296 5.7698 4.1896 4.3189 1.8013 10.726-3.9946 10.716-3.7521-0.0062-6.7384-4.2467-4.6324-6.5778 0.72203-0.7992 1.6306-0.37785 1.2023 0.5576-0.9272 2.0253 2.1604 4.1142 4.4109 2.9842 2.4542-1.2323 2.3659-3.4126-0.22919-5.6572-2.6942-2.3304-3.9647-4.6281-4.2487-7.6842-0.0458-0.49306-0.0458-0.49306-0.26053 0.10172-1.4818 4.105-4.053 6.8469-8.1969 8.7412-2.1384 0.97754-2.8281 1.6397-3.1058 2.9819-0.48432 2.3412 3.0652 3.6927 4.4338 1.6882 0.3894-0.57034 0.78158-0.20774 0.56841 0.52555-0.49421 1.7-2.4048 2.7154-4.4234 2.3507l7e-6 4e-6c-2.4714-0.44649-4.1333-2.689-3.8075-5.1375 0.25071-1.8839 1.4031-3.4805 3.5033-4.8537 2.3038-1.5063 2.4306-1.6009 3.363-2.5086 1.019-0.99201 1.2148-1.2524 1.7507-2.3271 0.29964-0.60098 0.78248-1.8063 0.78248-1.9533 0-0.02021-0.13284 0.08571-0.29521 0.23537-1.0862 1.0012-2.2314 1.5147-3.5625 1.5972-0.78131 0.04847-2.019-0.14638-2.7891-0.43908-0.20027-0.07612-0.38203-0.13257-0.40203-0.13843-0.02878-0.0084-0.2791 0.60703-0.78481 1.524-0.29257 0.53051-0.36422 0.48413-0.24523 0.79571 0.22657 0.59325 0.02956 0.97273-1.7694 3.4083-0.63802 0.8638-1.3181 1.7201-1.5113 1.9028-1.1374 1.0757-2.8002 0.43223-2.8155-1.0895-0.0047-0.47189 0.03433-0.55684 0.75064-1.6328 0.28649-0.43034 0.63513-0.96223 0.77475-1.182 0.84521-1.3302 1.8297-2.4772 2.2498-2.493 0.09565-0.0036 0.46603-0.40254 0.54635-0.45669 0.06746-0.04548 0.54744-0.68701 0.56243-0.72772zm6.2736 0.74548c2.1546-0.71115 3.1779-3.4486 2.0125-5.3835-1.4666-2.4349-4.0023-2.7625-6.0108-0.77645-2.6908 2.6607 0.35997 7.3608 3.9983 6.16z"/>
    </g>
</svg>
