<?xml version="1.0" encoding="UTF-8" standalone="no"?>
<svg
   width="45mm"
   height="40mm"
   fill="#ffffff"
   version="1.1"
   viewBox="0 0 70 56"
   id="svg12"
   xmlns="http://www.w3.org/2000/svg"
   xmlns:svg="http://www.w3.org/2000/svg">
  <defs
     id="defs12" />
  <g
     transform="matrix(1.0863,0,0,1.0863,-71.836,-35.394)"
     id="g4">
    <path
       d="m100.01 46.358c-0.10351-0.1035-1.4657-0.21438-1.9659-0.16002-0.2952 0.03209-0.71991 0.07801-0.9438 0.10204-0.47556 0.05104-0.78243-0.06581-1.3373-0.50921-1.6035-1.2814-4.731-1.7453-7.4344-1.1027-0.37599 0.08937-0.74937 0.17762-0.82972 0.19611-0.78342 0.18026-0.26405-3.2362 0.82455-5.424 1.7691-3.5554 4.6216-5.6678 8.4459-6.2544 6.8908-1.0571 12.928 4.0649 13.165 11.168 0.0445 1.3383 0.32004 1.2166-2.1281 0.93989-3.4873-0.3942-5.6796-0.15292-7.0674 0.77785-0.4129 0.27692-0.63609 0.35844-0.72845 0.26608z"
       id="path1" />
    <path
       d="m103.58 51.819c-1.3436-0.67138-1.2582-2.9889 0.12528-3.4034 0.62099-0.18606 1.3161-0.03942 1.7538 0.36996 1.5696 1.4682 0.014 3.9794-1.8791 3.0334z"
       id="path2" />
    <path
       d="m91.727 52.023c-1.2014-0.3482-1.6602-1.862-0.87617-2.8912 0.7439-0.97656 2.4359-0.90532 2.9379 0.1237 0.73439 1.5054-0.53547 3.2099-2.0618 2.7675z"
       id="path3" />
    <path
       d="m91.199 54.978c-3.0755-0.24929-4.8425-2.1388-5.066-5.4171-0.07576-1.1115-0.09485-1.1624-0.49327-1.3145-0.96955-0.37027-0.62859-1.9863 0.41908-1.9863 0.32252 0 0.64312-0.06867 1.2646-0.27084 3.195-1.0395 7.4696-0.49802 8.5426 1.0821 0.38364 0.56493 0.45199 0.5876 1.0042 0.33306 0.73933-0.34078 2.4991-0.31347 3.1749 0.04928 0.32192 0.17279 0.38512 0.14833 0.68096-0.26344 0.90945-1.2659 5.2129-1.6829 8.7852-0.8512 0.48664 0.11329 0.63995 0.1254 0.80985 0.06396 0.68435-0.24746 1.1058 0.13276 1.1058 0.99767 0 0.56612-0.12141 0.85194-0.38699 0.91099-0.36953 0.08217-0.40499 0.10321-0.47543 0.2821-0.0395 0.10025-0.10487 0.49927-0.14535 0.88672-0.40404 3.868-2.0428 5.4679-5.6007 5.4679-3.08 0-4.7344-1.629-4.9858-4.9093-0.0891-1.1625-0.26817-1.3301-1.4214-1.3301-1.3086 0-1.4518 0.16424-1.6726 1.9182-0.3736 2.9677-2.4532 4.6011-5.5397 4.3509zm1.6241-1.3126c2.4007-0.49798 3.7513-3.8178 2.3-5.6538-1.1671-1.4765-6.5116-1.7403-7.2636-0.35855-1.7183 3.1571 1.2712 6.7782 4.9636 6.0123zm12.918 0.07848c2.3182-0.41331 3.7363-2.5934 3.3136-5.0943-0.24287-1.437-0.44308-1.5243-3.4991-1.5253-3.6081-0.0012-4.9338 0.9005-4.5988 3.1277 0.36041 2.3955 1.5758 3.4653 4.0626 3.5757 0.1107 0.0049 0.43548-0.03282 0.72173-0.08385z"
       id="path4" />
  </g>
  <path
     transform="matrix(1.0863 0 0 1.0863 -71.836 -35.394)"
     d="m82.34 64.724c-3.8859 2.0224-7.3242 6.6111-6.4937 9.9879 0.9656 3.9264 6.7196 4.958 7.7389 1.3875 0.3627-1.2702-0.47199-1.8022-1.1611-0.73999-1.2504 1.9277-5.1773 0.31366-4.2446-2.2289 0.83687-1.8586 1.4295-3.5751 5.503-6.3431-0.6469-0.72178-0.97255-1.118-1.3424-2.0634z"
     id="path5" />
  <g
     stroke-width="1.0863"
     id="g9">
    <path
       d="m22.804 36.655c-0.65309-0.37039-1.1501-0.47545-1.6767-1.0106l-1.7894 2.5498c-0.34504 0.41997-0.36871 0.6918-1.0571 0.72669-0.45609 0.02311-1.6478 1.424-2.5659 2.869-0.15167 0.23874-0.53042 0.81628-0.84164 1.2838-0.77813 1.1688-0.82021 1.2615-0.81511 1.7741 0.01662 1.6531 1.8231 2.3518 3.0587 1.1833 0.20987-0.19847 0.94839-1.1284 1.6415-2.0667 1.9542-2.6458 2.1681-3.0581 1.922-3.7026-0.12926-0.33847-0.05174-0.28785 0.26608-0.86414 0.07483-0.13569 1.793-2.6199 1.8576-2.7426z"
       id="path6" />
    <path
       d="m29.49 25.119a8.1017 8.1017 0 0 1 3.7661 6.8448 8.1017 8.1017 0 0 1-5.2186 7.5715c-0.30082 0.45988-0.64381 0.82283-1.3328 1.4936-1.0129 0.98603-1.1501 1.0888-3.6527 2.7251-2.2814 1.4917-3.5339 3.226-3.8063 5.2725-0.35392 2.6598 1.452 5.0953 4.1366 5.5804 2.1928 0.39617 4.2678-0.70634 4.8046-2.553 0.23157-0.79657-0.19436-1.1903-0.61736-0.57074-1.4867 2.1775-5.3428 0.70885-4.8167-1.8344 0.30166-1.458 1.0516-2.1768 3.3746-3.2387 4.5015-2.0578 7.2938-5.0367 8.9035-9.4959 0.12939-0.35839 0.18772-0.51793 0.22186-0.49759 0.02642 0.02004 0.04013 0.15313 0.0619 0.38746 0.30851 3.3198 1.6882 5.8157 4.6149 8.3472 2.819 2.4383 2.9152 4.8068 0.2492 6.1455-2.4447 1.2275-5.799-1.0419-4.7918-3.242 0.46526-1.0162-0.52192-1.4743-1.3063-0.60611-2.2877 2.5323 0.95623 7.1388 5.0321 7.1455 6.2961 0.01086 8.8912-6.949 4.34-11.641-2.2602-2.3299-3.0726-3.9297-3.1825-6.2677-0.04111-0.87457-0.04106-0.87485 0.24276-0.40112 2.5851 4.314 6.6835 6.161 11.573 5.2138 2.4374-0.47215 3.6873-0.57528 4.6093-0.37862 2.7069 0.57748 3.796 3.4017 2.0032 5.1945-0.91478 0.9148-2.7281 1.0169-3.5225 0.19855-0.93182-0.95985-1.638 0.01309-0.90675 1.2492 2.375 4.0147 9.2474 0.1962 8.4968-4.721-0.60876-3.9881-4.1277-6.0145-9.0771-5.2283-3.9385 0.62571-6.3829-0.06136-8.1953-2.303-0.37636-0.46557-1.1932-1.8216-1.16-1.9164v-8.03e-4l0.002412-0.002412 8.03e-4 -8.04e-4h8.04e-4l8.04e-4 -8.04e-4c3.63e-4 -4.3e-5 2e-3 0 0.0024 0 0.01456 0 0.20497 0.16743 0.42363 0.37219 3.6073 3.3779 8.7309 3.5843 11.64 0.46945 1.9862-2.1268 1.8749-4.3835-0.40354-8.1736-1.4308-2.3801-1.7092-3.4105-1.2701-4.6937 0.70599-2.063 3.2953-2.3684 4.2452-0.5008 0.51181 1.0063 1.6787 0.25868 1.4582-0.93408-0.5665-3.0641-5.1157-3.8715-7.6326-1.3545-2.1192 2.1193-2.1767 4.4226-0.209 8.3649 1.9703 3.9475 1.7615 5.1057-0.95016 5.2612-3.2807 0.18815-5.913-2.767-6.1953-6.9558-0.03088-0.45764-0.07847-0.73326-0.12781-0.74517-3.95e-4 -6.2e-5 -2e-3 2.7e-5 -0.0024 0l-8.03e-4 -8.04e-4c-0.04438 7.05e-4 -0.38452 0.0975-0.75562 0.21463-4.3326 1.3674-8.1809-0.85116-8.9132-5.1382-0.11338-0.66376-0.37295-0.85966-0.94292-0.71061-0.15089 0.03943-0.15719 0.05548-0.43167 1.1873-0.59538 2.4554-2.5528 4.2185-4.7829 4.8681z"
       id="path7" />
    <path
       d="m8.1013 13.179c-4.0806 0.0045-7.9475 3.6089-6.2259 7.0064 0.80223 1.5833 3.8163 1.7941 4.2645 0.29823 0.13994-0.46708-0.00824-0.5961-0.43167-0.3754-1.3918 0.72543-2.6825-0.75626-1.9711-2.2629 1.0952-2.3193 5.5723-2.4835 6.746-0.24759 0.70959 1.3518 0.67534 2.4625-0.15756 5.1005-0.59339 1.8795-0.74596 2.9018-0.61897 4.1503 0.39666 3.9 3.7046 6.9275 7.6061 7.1495a8.1017 8.1017 0 0 1-0.25965-2.0346 8.1017 8.1017 0 0 1 0.27894-2.1069c-1.2015-0.077181-2.4868-0.77054-3.0563-1.9534-0.60248-1.2515-0.62229-2.6056-0.068327-4.6278 1.1856-4.3281-0.073235-7.9301-3.3127-9.4775-0.89842-0.42914-1.8517-0.62002-2.7934-0.61897z"
       id="path9" />
  </g>
  <g
     id="g12">
    <path
       d="m25.155 25.552a6.4113 6.4113 0 0 0-6.4116 6.4116 6.4113 6.4113 0 0 0 6.4116 6.4107 6.4113 6.4113 0 0 0 6.4116-6.4107 6.4113 6.4113 0 0 0-6.4116-6.4116zm0 2.2596a4.1519 4.1519 0 0 1 4.1519 4.1519 4.1519 4.1519 0 0 1-4.1519 4.1519 4.1519 4.1519 0 0 1-4.1519-4.1519 4.1519 4.1519 0 0 1 4.1519-4.1519z"
       id="path11" />
  </g>
</svg>
